<svg version="1.1" xmlns="http://www.w3.org/2000/svg" viewBox="0 0 489.5 630" width="489.5" height="630" class="excalidraw-svg">
  <!-- svg-source:excalidraw -->
  
  <defs>
    <style class="style-fonts">
      @font-face {
        font-family: "Virgil";
        src: url("https://excalidraw.com/Virgil.woff2");
      }
      @font-face {
        font-family: "Cascadia";
        src: url("https://excalidraw.com/Cascadia.woff2");
      }
      @font-face {
        font-family: "Assistant";
        src: url("https://excalidraw.com/Assistant-Regular.woff2");
      }
    </style>
    
  </defs>
  <rect x="0" y="0" width="489.5" height="630" fill="#ffffff"/><g stroke-linecap="round" transform="translate(174 10) rotate(0 80.25 47.5)"><path d="M54.81 3.05 C65.42 0.24, 80.07 0.34, 92.33 1.34 C104.59 2.34, 118.45 4.63, 128.37 9.02 C138.29 13.42, 146.37 20.86, 151.86 27.7 C157.36 34.54, 161.66 42.84, 161.35 50.05 C161.04 57.25, 156.26 64.8, 149.98 70.95 C143.71 77.1, 134.3 82.84, 123.7 86.97 C113.1 91.09, 98.96 95.03, 86.39 95.68 C73.83 96.33, 59.73 93.96, 48.31 90.85 C36.89 87.74, 25.68 82.56, 17.85 77.01 C10.02 71.46, 3.79 64.68, 1.35 57.55 C-1.09 50.43, -0.36 41.44, 3.21 34.25 C6.78 27.07, 12.4 20.1, 22.77 14.45 C33.15 8.8, 56.29 2.56, 65.44 0.37 C74.58 -1.81, 77.38 0.36, 77.64 1.35 M66.98 0.27 C78.62 -1.33, 93.65 1.05, 105.59 3.28 C117.52 5.5, 129.88 8.4, 138.59 13.64 C147.29 18.88, 154.24 27.51, 157.82 34.74 C161.4 41.98, 162.62 50.05, 160.06 57.07 C157.49 64.08, 150.45 71.21, 142.44 76.83 C134.42 82.46, 123.03 87.95, 111.95 90.84 C100.87 93.72, 88.28 94.37, 75.96 94.14 C63.63 93.9, 48.8 93.14, 38.02 89.43 C27.23 85.71, 17.78 78.55, 11.24 71.87 C4.69 65.19, -0.65 56.46, -1.25 49.36 C-1.84 42.27, 2.32 35.69, 7.67 29.32 C13.01 22.95, 21.17 16.08, 30.83 11.15 C40.48 6.21, 59.83 1.48, 65.59 -0.29 C71.35 -2.07, 64.91 -0.67, 65.38 0.49" stroke="#1e1e1e" stroke-width="2" fill="none"/></g><g transform="translate(224.80155580977956 48.21242789363899) rotate(0 29.203125 9.200000000000003)"><text x="29.203125" y="14.720312499999999" font-family="Helvetica, Segoe UI Emoji" font-size="16px" fill="#1e1e1e" text-anchor="middle" style="white-space: pre;" direction="ltr" dominant-baseline="alphabetic">apply.sh</text></g><g mask="url(#mask-Rbv7cWszpwZPk-6yHIE6D)" stroke-linecap="round"><g transform="translate(184.97368034642173 95.73894468906093) rotate(0 -43.386312894514035 77.21935094566496)"><path d="M0.38 0.54 C-13.99 25.9, -71.86 127.5, -86.56 153.31 M-0.89 -0.23 C-15.36 25.76, -73.3 128.62, -87.39 154.26" stroke="#1e1e1e" stroke-width="2" fill="none"/></g><g transform="translate(184.97368034642173 95.73894468906093) rotate(0 -43.386312894514035 77.21935094566496)"><path d="M-83.42 129.58 C-83.37 136.58, -87.2 141.17, -87.39 154.26 M-83.42 129.58 C-84.46 139.16, -85.98 149.05, -87.39 154.26" stroke="#1e1e1e" stroke-width="2" fill="none"/></g><g transform="translate(184.97368034642173 95.73894468906093) rotate(0 -43.386312894514035 77.21935094566496)"><path d="M-68.48 137.9 C-72.51 142.71, -80.36 145.07, -87.39 154.26 M-68.48 137.9 C-75.23 144.2, -82.48 150.89, -87.39 154.26" stroke="#1e1e1e" stroke-width="2" fill="none"/></g></g><mask id="mask-Rbv7cWszpwZPk-6yHIE6D"><rect x="0" y="0" fill="#fff" width="371.7463061354498" height="350.17764658039084"/><rect x="136.0258440144077" y="161.45829563472586" fill="#000" width="11.123046875" height="23" opacity="1"/></mask><g transform="translate(136.0258440144077 161.4582956347259) rotate(0 5.441115089883091 11.296387949129553)"><text x="5.5615234375" y="18.400390625" font-family="Helvetica, Segoe UI Emoji" font-size="20px" fill="#1e1e1e" text-anchor="middle" style="white-space: pre;" direction="ltr" dominant-baseline="alphabetic">1</text></g><g stroke-linecap="round" transform="translate(53.5 254) rotate(0 75.5 45.25)"><path d="M101.41 2.18 C112.14 3.74, 121.9 9.31, 129.79 14.59 C137.67 19.87, 145.48 27.03, 148.72 33.85 C151.95 40.67, 151.89 48.82, 149.22 55.51 C146.56 62.21, 140.13 68.93, 132.73 74.04 C125.34 79.16, 115.59 83.49, 104.86 86.22 C94.12 88.95, 79.93 90.87, 68.31 90.41 C56.68 89.96, 44.75 87.35, 35.12 83.49 C25.49 79.63, 16.22 73.45, 10.51 67.25 C4.8 61.04, 1.26 53.25, 0.87 46.26 C0.47 39.27, 3.1 31.6, 8.16 25.32 C13.23 19.04, 21.95 12.68, 31.25 8.58 C40.56 4.48, 51.04 1.4, 63.99 0.71 C76.94 0.02, 100.1 3.35, 108.97 4.47 C117.83 5.59, 117.8 6.82, 117.17 7.43 M42.89 3.87 C52.37 0.42, 66.33 -0.21, 78.26 0.17 C90.2 0.55, 104.53 2.5, 114.51 6.15 C124.49 9.79, 132.33 15.87, 138.13 22.02 C143.94 28.17, 148.07 36.23, 149.34 43.06 C150.62 49.89, 150.09 56.72, 145.78 63.01 C141.47 69.3, 132.96 76.41, 123.49 80.78 C114.03 85.14, 100.33 88.07, 89.01 89.19 C77.69 90.32, 66.44 89.29, 55.56 87.53 C44.68 85.77, 32.33 83.3, 23.73 78.62 C15.14 73.94, 7.88 66.19, 3.97 59.44 C0.06 52.69, -1.67 45.09, 0.28 38.14 C2.22 31.19, 8.48 23.5, 15.62 17.74 C22.77 11.98, 38.33 5.87, 43.14 3.59 C47.95 1.31, 43.9 3.11, 44.48 4.05" stroke="#1e1e1e" stroke-width="2" fill="none"/></g><g transform="translate(101.98843802041566 290.05341815130873) rotate(0 27.125 9.199999999999989)"><text x="27.125" y="14.720312499999999" font-family="Helvetica, Segoe UI Emoji" font-size="16px" fill="#1e1e1e" text-anchor="middle" style="white-space: pre;" direction="ltr" dominant-baseline="alphabetic">linux.sh</text></g><g mask="url(#mask-z0YrRi5w0S1rYKp7RsNEY)" stroke-linecap="round"><g transform="translate(325.0795672642553 102.89326871860257) rotate(0 54.48235438819093 74.04416951339287)"><path d="M0.4 0.04 C18.39 24.87, 90.41 123.63, 108.31 148.16 M-0.86 -0.98 C17.5 24.14, 92.19 124.89, 110.68 149.73" stroke="#1e1e1e" stroke-width="2" fill="none"/></g><g transform="translate(325.0795672642553 102.89326871860257) rotate(0 54.48235438819093 74.04416951339287)"><path d="M89.81 135.97 C96.65 139.34, 103.57 143.01, 110.68 149.73 M89.81 135.97 C94.05 138.87, 99.63 143.07, 110.68 149.73" stroke="#1e1e1e" stroke-width="2" fill="none"/></g><g transform="translate(325.0795672642553 102.89326871860257) rotate(0 54.48235438819093 74.04416951339287)"><path d="M103.54 125.77 C105.79 132.55, 108.19 139.58, 110.68 149.73 M103.54 125.77 C104.72 130.9, 107.19 137.4, 110.68 149.73" stroke="#1e1e1e" stroke-width="2" fill="none"/></g></g><mask id="mask-z0YrRi5w0S1rYKp7RsNEY"><rect x="0" y="0" fill="#fff" width="534.0442760406371" height="350.9816077453883"/><rect x="374.00039821494624" y="165.43743823199546" fill="#000" width="11.123046875" height="23" opacity="1"/></mask><g transform="translate(374.0003982149462 165.43743823199546) rotate(0 5.988824720541025 11.830233672847982)"><text x="5.5615234375" y="18.400390625" font-family="Helvetica, Segoe UI Emoji" font-size="20px" fill="#1e1e1e" text-anchor="middle" style="white-space: pre;" direction="ltr" dominant-baseline="alphabetic">1</text></g><g stroke-linecap="round" transform="translate(338.5 256.5) rotate(0 70.5 39.25)"><path d="M38.45 3.4 C47.23 0.55, 60.63 0.47, 71.72 0.7 C82.8 0.94, 95.38 1.96, 104.95 4.82 C114.51 7.68, 123.23 12.88, 129.11 17.85 C134.99 22.83, 138.92 28.76, 140.22 34.67 C141.53 40.58, 140.75 47.48, 136.94 53.31 C133.14 59.13, 125.69 65.5, 117.4 69.64 C109.11 73.77, 98 77, 87.22 78.12 C76.45 79.24, 63.34 77.82, 52.77 76.34 C42.19 74.85, 31.93 73.14, 23.78 69.2 C15.64 65.25, 7.64 58.69, 3.9 52.68 C0.15 46.66, -0.05 39.2, 1.31 33.09 C2.67 26.98, 4.71 20.99, 12.04 16.04 C19.37 11.08, 38.25 5.56, 45.29 3.37 C52.32 1.19, 53.64 2.57, 54.26 2.92 M40.28 4.97 C49.16 1.58, 63.59 -0.7, 74.18 -0.63 C84.78 -0.55, 94.69 2.11, 103.85 5.41 C113.02 8.72, 123.09 14.31, 129.17 19.19 C135.25 24.07, 139.06 28.92, 140.32 34.71 C141.58 40.51, 140.91 48.05, 136.72 53.97 C132.53 59.88, 123.92 66.15, 115.19 70.22 C106.45 74.28, 95.01 77.37, 84.32 78.34 C73.63 79.31, 61.49 77.83, 51.05 76.03 C40.61 74.23, 29.73 71.53, 21.68 67.55 C13.63 63.57, 6.01 57.92, 2.74 52.13 C-0.52 46.34, 0.45 38.83, 2.08 32.81 C3.71 26.79, 5.98 20.65, 12.52 16 C19.05 11.35, 36.88 6.98, 41.31 4.9 C45.74 2.81, 38.91 3.02, 39.1 3.5" stroke="#1e1e1e" stroke-width="2" fill="none"/></g><g transform="translate(374.9106906763484 286.796058838428) rotate(0 34.23828125 9.199999999999989)"><text x="34.23828125" y="14.720312499999999" font-family="Helvetica, Segoe UI Emoji" font-size="16px" fill="#1e1e1e" text-anchor="middle" style="white-space: pre;" direction="ltr" dominant-baseline="alphabetic">darwin.sh</text></g><g stroke-linecap="round" transform="translate(10 527) rotate(0 86.75 46.5)"><path d="M81.05 0.75 C92.7 -0.43, 107.95 0.39, 119.58 2.87 C131.22 5.36, 142.5 10.66, 150.87 15.66 C159.23 20.65, 166.29 26.33, 169.78 32.87 C173.27 39.4, 173.76 48.17, 171.79 54.88 C169.82 61.59, 165.05 67.83, 157.95 73.14 C150.86 78.45, 140.19 83.44, 129.22 86.72 C118.25 90, 104.68 92.44, 92.13 92.83 C79.57 93.22, 65.71 91.63, 53.91 89.07 C42.1 86.51, 29.73 82.3, 21.28 77.46 C12.83 72.62, 6.44 66.59, 3.22 60.02 C0 53.45, -0.26 44.85, 1.96 38.04 C4.18 31.22, 9.37 24.44, 16.52 19.14 C23.67 13.83, 31.51 9.3, 44.87 6.21 C58.23 3.12, 86.14 1.07, 96.71 0.59 C107.27 0.1, 108.5 2.58, 108.25 3.3 M119.54 4.28 C131.14 5.76, 140.27 10.43, 148.74 15.07 C157.21 19.71, 166.39 25.77, 170.34 32.14 C174.3 38.52, 174.62 46.83, 172.48 53.31 C170.34 59.79, 164.63 65.64, 157.52 71.03 C150.41 76.41, 140.28 82.23, 129.81 85.61 C119.35 89, 107.33 90.72, 94.73 91.36 C82.14 92, 66.2 91.42, 54.26 89.46 C42.32 87.51, 31.66 84.49, 23.09 79.64 C14.51 74.8, 6.45 66.85, 2.81 60.41 C-0.82 53.96, -0.49 47.72, 1.27 40.97 C3.04 34.22, 6.66 25.78, 13.41 19.91 C20.15 14.04, 30.88 8.81, 41.77 5.76 C52.65 2.71, 65.82 2.25, 78.7 1.62 C91.58 0.98, 112.73 1.72, 119.05 1.95 C125.38 2.19, 117.34 2.05, 116.65 3.04" stroke="#1e1e1e" stroke-width="2" fill="none"/></g><g transform="translate(41.31083048206699 564.4195346748255) rotate(0 55.59765625 9.199999999999989)"><text x="55.59765625" y="14.720312499999999" font-family="Helvetica, Segoe UI Emoji" font-size="16px" fill="#1e1e1e" text-anchor="middle" style="white-space: pre;" direction="ltr" dominant-baseline="alphabetic">linux_debian.sh</text></g><g mask="url(#mask-7QQUkqeFLTUwLVtOfuZea)" stroke-linecap="round"><g transform="translate(80.74325802122647 342.95668288964464) rotate(0 -9.259611463141951 88.19524629974006)"><path d="M-0.8 0.8 C-3.93 30.14, -16.69 146.65, -19.57 175.72 M0.97 0.17 C-1.73 29.69, -14.14 147.61, -17.41 176.91" stroke="#1e1e1e" stroke-width="2" fill="none"/></g><g transform="translate(80.74325802122647 342.95668288964464) rotate(0 -9.259611463141951 88.19524629974006)"><path d="M-23.39 152.64 C-20.72 156.63, -21.76 164.81, -17.41 176.91 M-23.39 152.64 C-21.68 156.99, -20.79 162.48, -17.41 176.91" stroke="#1e1e1e" stroke-width="2" fill="none"/></g><g transform="translate(80.74325802122647 342.95668288964464) rotate(0 -9.259611463141951 88.19524629974006)"><path d="M-6.39 154.47 C-7.71 157.91, -12.74 165.67, -17.41 176.91 M-6.39 154.47 C-8.16 158.28, -10.75 163.4, -17.41 176.91" stroke="#1e1e1e" stroke-width="2" fill="none"/></g></g><mask id="mask-7QQUkqeFLTUwLVtOfuZea"><rect x="0" y="0" fill="#fff" width="199.26248094751037" height="619.3471754891248"/><rect x="65.9221231205845" y="419.65192918938476" fill="#000" width="11.123046875" height="23" opacity="1"/></mask><g transform="translate(65.9221231205845 419.65192918938465) rotate(0 5.524949149345062 11.845606914749396)"><text x="5.5615234375" y="18.400390625" font-family="Helvetica, Segoe UI Emoji" font-size="20px" fill="#1e1e1e" text-anchor="middle" style="white-space: pre;" direction="ltr" dominant-baseline="alphabetic">2</text></g><g mask="url(#mask-KHIMAOgS-ifYxP2eHxRVv)" stroke-linecap="round"><g transform="translate(132.62742717756186 521.7384617654927) rotate(0 10.104964594443516 -81.8037857028304)"><path d="M-0.4 0.81 C2.78 -26.49, 15.57 -136.92, 19.06 -164.44 M1.59 0.19 C5.12 -26.93, 18.11 -136.09, 21.16 -163.34" stroke="#1e1e1e" stroke-width="2" fill="none"/></g><g transform="translate(132.62742717756186 521.7384617654927) rotate(0 10.104964594443516 -81.8037857028304)"><path d="M26.94 -139.02 C26.69 -148.25, 22.21 -153.11, 21.16 -163.34 M26.94 -139.02 C26.51 -144.14, 24.12 -151.38, 21.16 -163.34" stroke="#1e1e1e" stroke-width="2" fill="none"/></g><g transform="translate(132.62742717756186 521.7384617654927) rotate(0 10.104964594443516 -81.8037857028304)"><path d="M9.96 -141 C14.78 -149.57, 15.39 -153.84, 21.16 -163.34 M9.96 -141 C13.62 -145.49, 15.34 -152.25, 21.16 -163.34" stroke="#1e1e1e" stroke-width="2" fill="none"/></g></g><mask id="mask-KHIMAOgS-ifYxP2eHxRVv"><rect x="0" y="0" fill="#fff" width="252.8373563664489" height="785.3460331711535"/><rect x="137.17086833450537" y="428.43467606266233" fill="#000" width="11.123046875" height="23" opacity="1"/></mask><g transform="translate(137.17086833450537 428.43467606266233) rotate(0 5.836133631696001 11.48912746012212)"><text x="5.5615234375" y="18.400390625" font-family="Helvetica, Segoe UI Emoji" font-size="20px" fill="#1e1e1e" text-anchor="middle" style="white-space: pre;" direction="ltr" dominant-baseline="alphabetic">3</text></g><g mask="url(#mask-zAlw8Uap48SN0CRLm25Tg)" stroke-linecap="round"><g transform="translate(163.92785509150912 251.1509810912325) rotate(0 34.87354958053034 -68.7270367511309)"><path d="M-1.12 -0.83 C10.57 -23.8, 58.59 -114.72, 70.29 -137.62 M0.49 1.35 C12.05 -21.45, 58.38 -113.05, 69.62 -136.16" stroke="#1e1e1e" stroke-width="2" fill="none"/></g><g transform="translate(163.92785509150912 251.1509810912325) rotate(0 34.87354958053034 -68.7270367511309)"><path d="M66.81 -111.32 C66.27 -118.18, 68.26 -128.02, 69.62 -136.16 M66.81 -111.32 C66.8 -117.43, 68.27 -123.54, 69.62 -136.16" stroke="#1e1e1e" stroke-width="2" fill="none"/></g><g transform="translate(163.92785509150912 251.1509810912325) rotate(0 34.87354958053034 -68.7270367511309)"><path d="M51.5 -118.94 C55.77 -123.27, 62.56 -130.72, 69.62 -136.16 M51.5 -118.94 C55.12 -123.23, 60.21 -127.55, 69.62 -136.16" stroke="#1e1e1e" stroke-width="2" fill="none"/></g></g><mask id="mask-zAlw8Uap48SN0CRLm25Tg"><rect x="0" y="0" fill="#fff" width="333.6749542525698" height="488.6050545934943"/><rect x="193.23988123453944" y="170.92394434010163" fill="#000" width="11.123046875" height="23" opacity="1"/></mask><g transform="translate(193.23988123453944 170.9239443401016) rotate(0 5.270555892586714 12.095862354258998)"><text x="5.5615234375" y="18.400390625" font-family="Helvetica, Segoe UI Emoji" font-size="20px" fill="#1e1e1e" text-anchor="middle" style="white-space: pre;" direction="ltr" dominant-baseline="alphabetic">4</text></g><g mask="url(#mask-edDgCV1d7-4MCYZgpM5VV)" stroke-linecap="round"><g transform="translate(361.93379626452975 258.8200615160454) rotate(0 -42.88921226881264 -71.22531579341576)"><path d="M-0.04 0.56 C-14.36 -23.45, -72.5 -119.8, -86.66 -143.57 M-1.52 -0.19 C-15.41 -24.14, -70.44 -118.63, -84.41 -142.61" stroke="#1e1e1e" stroke-width="2" fill="none"/></g><g transform="translate(361.93379626452975 258.8200615160454) rotate(0 -42.88921226881264 -71.22531579341576)"><path d="M-65.2 -126.61 C-68.96 -131.94, -76.38 -132.96, -84.41 -142.61 M-65.2 -126.61 C-72.13 -130.94, -77.79 -138.22, -84.41 -142.61" stroke="#1e1e1e" stroke-width="2" fill="none"/></g><g transform="translate(361.93379626452975 258.8200615160454) rotate(0 -42.88921226881264 -71.22531579341576)"><path d="M-79.97 -118.01 C-80.21 -125.4, -84.07 -128.5, -84.41 -142.61 M-79.97 -118.01 C-81.86 -125.35, -82.54 -135.53, -84.41 -142.61" stroke="#1e1e1e" stroke-width="2" fill="none"/></g></g><mask id="mask-edDgCV1d7-4MCYZgpM5VV"><rect x="0" y="0" fill="#fff" width="547.712220802155" height="501.270693102877"/><rect x="313.4830605582171" y="176.09474572262968" fill="#000" width="11.123046875" height="23" opacity="1"/></mask><g transform="translate(313.4830605582171 176.09474572262968) rotate(0 5.10253402292728 11.221969160437581)"><text x="5.5615234375" y="18.400390625" font-family="Helvetica, Segoe UI Emoji" font-size="20px" fill="#1e1e1e" text-anchor="middle" style="white-space: pre;" direction="ltr" dominant-baseline="alphabetic">2</text></g></svg>